# xmcd
#
# Track frame offsets: 
#        150
#        17307
#        40327
#        58695
#        77435
#        97012
#        113812
#        132667
#        152435
#        168682
#
# Disc length: 2480 seconds
#
# Revision: 8
# Processed by: cddbd v1.5.2PL0 Copyright (c) Steve Scherf et al.
# Submitted via: ExactAudioCopy v1.0b3
#
DISCID=7809ae0a
DTITLE=Tony Rich Project - Words
DYEAR=1995
DGENRE=House
TTITLE0=Hey Blue
TTITLE1=Nobody Knows
TTITLE2=Like A Woman
TTITLE3=Grass Is Green
TTITLE4=Ghost
TTITLE5=Leavin'
TTITLE6=Billy Goat
TTITLE7=Under Her Spell
TTITLE8=Little Ones
TTITLE9=Missin' You
EXTD=YEAR: 1996
EXTT0=
EXTT1=
EXTT2=
EXTT3=
EXTT4=
EXTT5=
EXTT6=
EXTT7=
EXTT8=
EXTT9=
PLAYORDER=
